<svg xmlns="http://www.w3.org/2000/svg" version="1.1" xmlns:xlink="http://www.w3.org/1999/xlink" xmlns:svgjs="http://svgjs.com/svgjs" width="1440" height="560" preserveAspectRatio="none" viewBox="0 0 1440 560"><g mask="url(&quot;#SvgjsMask1129&quot;)" fill="none"><rect width="1440" height="560" x="0" y="0" fill="url(#SvgjsLinearGradient1130)"></rect><path d="M106.85 324.23L171.81 361.73L171.81 436.73L106.85 474.23L41.9 436.73L41.9 361.73zM106.85 549.23L171.81 586.73L171.81 661.73L106.85 699.23L41.9 661.73L41.9 586.73zM236.76 99.23L301.71 136.73L301.71 211.73L236.76 249.23L171.81 211.73L171.81 136.73zM171.81 211.73L236.76 249.23L236.76 324.23L171.81 361.73L106.85 324.23L106.85 249.23zM171.81 436.73L236.76 474.23L236.76 549.23L171.81 586.73L106.85 549.23L106.85 474.23zM301.71 -13.27L366.67 24.23L366.67 99.23L301.71 136.73L236.76 99.23L236.76 24.23zM366.67 549.23L431.62 586.73L431.62 661.73L366.67 699.23L301.71 661.73L301.71 586.73zM431.62 -13.27L496.58 24.23L496.58 99.23L431.62 136.73L366.67 99.23L366.67 24.23zM431.62 211.73L496.58 249.23L496.58 324.23L431.62 361.73L366.67 324.23L366.67 249.23zM431.62 436.73L496.58 474.23L496.58 549.23L431.62 586.73L366.67 549.23L366.67 474.23zM626.48 99.23L691.44 136.73L691.44 211.73L626.48 249.23L561.53 211.73L561.53 136.73zM561.53 211.73L626.48 249.23L626.48 324.23L561.53 361.73L496.58 324.23L496.58 249.23zM626.48 549.23L691.44 586.73L691.44 661.73L626.48 699.23L561.53 661.73L561.53 586.73zM691.44 -13.27L756.39 24.23L756.39 99.23L691.44 136.73L626.48 99.23L626.48 24.23zM691.44 211.73L756.39 249.23L756.39 324.23L691.44 361.73L626.48 324.23L626.48 249.23zM821.34 211.73L886.3 249.23L886.3 324.23L821.34 361.73L756.39 324.23L756.39 249.23zM886.3 324.23L951.25 361.73L951.25 436.73L886.3 474.23L821.34 436.73L821.34 361.73zM886.3 549.23L951.25 586.73L951.25 661.73L886.3 699.23L821.34 661.73L821.34 586.73zM1016.21 99.23L1081.16 136.73L1081.16 211.73L1016.21 249.23L951.25 211.73L951.25 136.73zM1016.21 324.23L1081.16 361.73L1081.16 436.73L1016.21 474.23L951.25 436.73L951.25 361.73zM951.25 436.73L1016.21 474.23L1016.21 549.23L951.25 586.73L886.3 549.23L886.3 474.23zM1016.21 549.23L1081.16 586.73L1081.16 661.73L1016.21 699.23L951.25 661.73L951.25 586.73zM1081.16 436.73L1146.11 474.23L1146.11 549.23L1081.16 586.73L1016.21 549.23L1016.21 474.23zM1276.02 549.23L1340.97 586.73L1340.97 661.73L1276.02 699.23L1211.07 661.73L1211.07 586.73zM1340.98 -13.27L1405.93 24.23L1405.93 99.23L1340.98 136.73L1276.02 99.23L1276.02 24.23zM1340.98 436.73L1405.93 474.23L1405.93 549.23L1340.98 586.73L1276.02 549.23L1276.02 474.23zM1470.88 -13.27L1535.84 24.23L1535.84 99.23L1470.88 136.73L1405.93 99.23L1405.93 24.23zM1470.88 211.73L1535.84 249.23L1535.84 324.23L1470.88 361.73L1405.93 324.23L1405.93 249.23zM1535.84 324.23L1600.79 361.73L1600.79 436.73L1535.84 474.23L1470.88 436.73L1470.88 361.73zM1535.84 549.23L1600.79 586.73L1600.79 661.73L1535.84 699.23L1470.88 661.73L1470.88 586.73z" stroke="#03305d" stroke-width="2"></path><path d="M99.35 324.23 a7.5 7.5 0 1 0 15 0 a7.5 7.5 0 1 0 -15 0zM164.31 361.73 a7.5 7.5 0 1 0 15 0 a7.5 7.5 0 1 0 -15 0zM164.31 436.73 a7.5 7.5 0 1 0 15 0 a7.5 7.5 0 1 0 -15 0zM99.35 474.23 a7.5 7.5 0 1 0 15 0 a7.5 7.5 0 1 0 -15 0zM34.4 436.73 a7.5 7.5 0 1 0 15 0 a7.5 7.5 0 1 0 -15 0zM34.4 361.73 a7.5 7.5 0 1 0 15 0 a7.5 7.5 0 1 0 -15 0zM99.35 549.23 a7.5 7.5 0 1 0 15 0 a7.5 7.5 0 1 0 -15 0zM164.31 586.73 a7.5 7.5 0 1 0 15 0 a7.5 7.5 0 1 0 -15 0zM164.31 661.73 a7.5 7.5 0 1 0 15 0 a7.5 7.5 0 1 0 -15 0zM99.35 699.23 a7.5 7.5 0 1 0 15 0 a7.5 7.5 0 1 0 -15 0zM34.4 661.73 a7.5 7.5 0 1 0 15 0 a7.5 7.5 0 1 0 -15 0zM34.4 586.73 a7.5 7.5 0 1 0 15 0 a7.5 7.5 0 1 0 -15 0zM229.26 99.23 a7.5 7.5 0 1 0 15 0 a7.5 7.5 0 1 0 -15 0zM294.21 136.73 a7.5 7.5 0 1 0 15 0 a7.5 7.5 0 1 0 -15 0zM294.21 211.73 a7.5 7.5 0 1 0 15 0 a7.5 7.5 0 1 0 -15 0zM229.26 249.23 a7.5 7.5 0 1 0 15 0 a7.5 7.5 0 1 0 -15 0zM164.31 211.73 a7.5 7.5 0 1 0 15 0 a7.5 7.5 0 1 0 -15 0zM164.31 136.73 a7.5 7.5 0 1 0 15 0 a7.5 7.5 0 1 0 -15 0zM229.26 324.23 a7.5 7.5 0 1 0 15 0 a7.5 7.5 0 1 0 -15 0zM99.35 249.23 a7.5 7.5 0 1 0 15 0 a7.5 7.5 0 1 0 -15 0zM229.26 474.23 a7.5 7.5 0 1 0 15 0 a7.5 7.5 0 1 0 -15 0zM229.26 549.23 a7.5 7.5 0 1 0 15 0 a7.5 7.5 0 1 0 -15 0zM294.21 -13.27 a7.5 7.5 0 1 0 15 0 a7.5 7.5 0 1 0 -15 0zM359.17 24.23 a7.5 7.5 0 1 0 15 0 a7.5 7.5 0 1 0 -15 0zM359.17 99.23 a7.5 7.5 0 1 0 15 0 a7.5 7.5 0 1 0 -15 0zM229.26 24.23 a7.5 7.5 0 1 0 15 0 a7.5 7.5 0 1 0 -15 0zM359.17 549.23 a7.5 7.5 0 1 0 15 0 a7.5 7.5 0 1 0 -15 0zM424.12 586.73 a7.5 7.5 0 1 0 15 0 a7.5 7.5 0 1 0 -15 0zM424.12 661.73 a7.5 7.5 0 1 0 15 0 a7.5 7.5 0 1 0 -15 0zM359.17 699.23 a7.5 7.5 0 1 0 15 0 a7.5 7.5 0 1 0 -15 0zM294.21 661.73 a7.5 7.5 0 1 0 15 0 a7.5 7.5 0 1 0 -15 0zM294.21 586.73 a7.5 7.5 0 1 0 15 0 a7.5 7.5 0 1 0 -15 0zM424.12 -13.27 a7.5 7.5 0 1 0 15 0 a7.5 7.5 0 1 0 -15 0zM489.08 24.23 a7.5 7.5 0 1 0 15 0 a7.5 7.5 0 1 0 -15 0zM489.08 99.23 a7.5 7.5 0 1 0 15 0 a7.5 7.5 0 1 0 -15 0zM424.12 136.73 a7.5 7.5 0 1 0 15 0 a7.5 7.5 0 1 0 -15 0zM424.12 211.73 a7.5 7.5 0 1 0 15 0 a7.5 7.5 0 1 0 -15 0zM489.08 249.23 a7.5 7.5 0 1 0 15 0 a7.5 7.5 0 1 0 -15 0zM489.08 324.23 a7.5 7.5 0 1 0 15 0 a7.5 7.5 0 1 0 -15 0zM424.12 361.73 a7.5 7.5 0 1 0 15 0 a7.5 7.5 0 1 0 -15 0zM359.17 324.23 a7.5 7.5 0 1 0 15 0 a7.5 7.5 0 1 0 -15 0zM359.17 249.23 a7.5 7.5 0 1 0 15 0 a7.5 7.5 0 1 0 -15 0zM424.12 436.73 a7.5 7.5 0 1 0 15 0 a7.5 7.5 0 1 0 -15 0zM489.08 474.23 a7.5 7.5 0 1 0 15 0 a7.5 7.5 0 1 0 -15 0zM489.08 549.23 a7.5 7.5 0 1 0 15 0 a7.5 7.5 0 1 0 -15 0zM359.17 474.23 a7.5 7.5 0 1 0 15 0 a7.5 7.5 0 1 0 -15 0zM618.98 99.23 a7.5 7.5 0 1 0 15 0 a7.5 7.5 0 1 0 -15 0zM683.94 136.73 a7.5 7.5 0 1 0 15 0 a7.5 7.5 0 1 0 -15 0zM683.94 211.73 a7.5 7.5 0 1 0 15 0 a7.5 7.5 0 1 0 -15 0zM618.98 249.23 a7.5 7.5 0 1 0 15 0 a7.5 7.5 0 1 0 -15 0zM554.03 211.73 a7.5 7.5 0 1 0 15 0 a7.5 7.5 0 1 0 -15 0zM554.03 136.73 a7.5 7.5 0 1 0 15 0 a7.5 7.5 0 1 0 -15 0zM618.98 324.23 a7.5 7.5 0 1 0 15 0 a7.5 7.5 0 1 0 -15 0zM554.03 361.73 a7.5 7.5 0 1 0 15 0 a7.5 7.5 0 1 0 -15 0zM618.98 549.23 a7.5 7.5 0 1 0 15 0 a7.5 7.5 0 1 0 -15 0zM683.94 586.73 a7.5 7.5 0 1 0 15 0 a7.5 7.5 0 1 0 -15 0zM683.94 661.73 a7.5 7.5 0 1 0 15 0 a7.5 7.5 0 1 0 -15 0zM618.98 699.23 a7.5 7.5 0 1 0 15 0 a7.5 7.5 0 1 0 -15 0zM554.03 661.73 a7.5 7.5 0 1 0 15 0 a7.5 7.5 0 1 0 -15 0zM554.03 586.73 a7.5 7.5 0 1 0 15 0 a7.5 7.5 0 1 0 -15 0zM683.94 -13.27 a7.5 7.5 0 1 0 15 0 a7.5 7.5 0 1 0 -15 0zM748.89 24.23 a7.5 7.5 0 1 0 15 0 a7.5 7.5 0 1 0 -15 0zM748.89 99.23 a7.5 7.5 0 1 0 15 0 a7.5 7.5 0 1 0 -15 0zM618.98 24.23 a7.5 7.5 0 1 0 15 0 a7.5 7.5 0 1 0 -15 0zM748.89 249.23 a7.5 7.5 0 1 0 15 0 a7.5 7.5 0 1 0 -15 0zM748.89 324.23 a7.5 7.5 0 1 0 15 0 a7.5 7.5 0 1 0 -15 0zM683.94 361.73 a7.5 7.5 0 1 0 15 0 a7.5 7.5 0 1 0 -15 0zM813.84 211.73 a7.5 7.5 0 1 0 15 0 a7.5 7.5 0 1 0 -15 0zM878.8 249.23 a7.5 7.5 0 1 0 15 0 a7.5 7.5 0 1 0 -15 0zM878.8 324.23 a7.5 7.5 0 1 0 15 0 a7.5 7.5 0 1 0 -15 0zM813.84 361.73 a7.5 7.5 0 1 0 15 0 a7.5 7.5 0 1 0 -15 0zM943.75 361.73 a7.5 7.5 0 1 0 15 0 a7.5 7.5 0 1 0 -15 0zM943.75 436.73 a7.5 7.5 0 1 0 15 0 a7.5 7.5 0 1 0 -15 0zM878.8 474.23 a7.5 7.5 0 1 0 15 0 a7.5 7.5 0 1 0 -15 0zM813.84 436.73 a7.5 7.5 0 1 0 15 0 a7.5 7.5 0 1 0 -15 0zM878.8 549.23 a7.5 7.5 0 1 0 15 0 a7.5 7.5 0 1 0 -15 0zM943.75 586.73 a7.5 7.5 0 1 0 15 0 a7.5 7.5 0 1 0 -15 0zM943.75 661.73 a7.5 7.5 0 1 0 15 0 a7.5 7.5 0 1 0 -15 0zM878.8 699.23 a7.5 7.5 0 1 0 15 0 a7.5 7.5 0 1 0 -15 0zM813.84 661.73 a7.5 7.5 0 1 0 15 0 a7.5 7.5 0 1 0 -15 0zM813.84 586.73 a7.5 7.5 0 1 0 15 0 a7.5 7.5 0 1 0 -15 0zM1008.71 99.23 a7.5 7.5 0 1 0 15 0 a7.5 7.5 0 1 0 -15 0zM1073.66 136.73 a7.5 7.5 0 1 0 15 0 a7.5 7.5 0 1 0 -15 0zM1073.66 211.73 a7.5 7.5 0 1 0 15 0 a7.5 7.5 0 1 0 -15 0zM1008.71 249.23 a7.5 7.5 0 1 0 15 0 a7.5 7.5 0 1 0 -15 0zM943.75 211.73 a7.5 7.5 0 1 0 15 0 a7.5 7.5 0 1 0 -15 0zM943.75 136.73 a7.5 7.5 0 1 0 15 0 a7.5 7.5 0 1 0 -15 0zM1008.71 324.23 a7.5 7.5 0 1 0 15 0 a7.5 7.5 0 1 0 -15 0zM1073.66 361.73 a7.5 7.5 0 1 0 15 0 a7.5 7.5 0 1 0 -15 0zM1073.66 436.73 a7.5 7.5 0 1 0 15 0 a7.5 7.5 0 1 0 -15 0zM1008.71 474.23 a7.5 7.5 0 1 0 15 0 a7.5 7.5 0 1 0 -15 0zM1008.71 549.23 a7.5 7.5 0 1 0 15 0 a7.5 7.5 0 1 0 -15 0zM1073.66 586.73 a7.5 7.5 0 1 0 15 0 a7.5 7.5 0 1 0 -15 0zM1073.66 661.73 a7.5 7.5 0 1 0 15 0 a7.5 7.5 0 1 0 -15 0zM1008.71 699.23 a7.5 7.5 0 1 0 15 0 a7.5 7.5 0 1 0 -15 0zM1138.61 474.23 a7.5 7.5 0 1 0 15 0 a7.5 7.5 0 1 0 -15 0zM1138.61 549.23 a7.5 7.5 0 1 0 15 0 a7.5 7.5 0 1 0 -15 0zM1268.52 549.23 a7.5 7.5 0 1 0 15 0 a7.5 7.5 0 1 0 -15 0zM1333.47 586.73 a7.5 7.5 0 1 0 15 0 a7.5 7.5 0 1 0 -15 0zM1333.47 661.73 a7.5 7.5 0 1 0 15 0 a7.5 7.5 0 1 0 -15 0zM1268.52 699.23 a7.5 7.5 0 1 0 15 0 a7.5 7.5 0 1 0 -15 0zM1203.57 661.73 a7.5 7.5 0 1 0 15 0 a7.5 7.5 0 1 0 -15 0zM1203.57 586.73 a7.5 7.5 0 1 0 15 0 a7.5 7.5 0 1 0 -15 0zM1333.48 -13.27 a7.5 7.5 0 1 0 15 0 a7.5 7.5 0 1 0 -15 0zM1398.43 24.23 a7.5 7.5 0 1 0 15 0 a7.5 7.5 0 1 0 -15 0zM1398.43 99.23 a7.5 7.5 0 1 0 15 0 a7.5 7.5 0 1 0 -15 0zM1333.48 136.73 a7.5 7.5 0 1 0 15 0 a7.5 7.5 0 1 0 -15 0zM1268.52 99.23 a7.5 7.5 0 1 0 15 0 a7.5 7.5 0 1 0 -15 0zM1268.52 24.23 a7.5 7.5 0 1 0 15 0 a7.5 7.5 0 1 0 -15 0zM1333.48 436.73 a7.5 7.5 0 1 0 15 0 a7.5 7.5 0 1 0 -15 0zM1398.43 474.23 a7.5 7.5 0 1 0 15 0 a7.5 7.5 0 1 0 -15 0zM1398.43 549.23 a7.5 7.5 0 1 0 15 0 a7.5 7.5 0 1 0 -15 0zM1333.48 586.73 a7.5 7.5 0 1 0 15 0 a7.5 7.5 0 1 0 -15 0zM1268.52 474.23 a7.5 7.5 0 1 0 15 0 a7.5 7.5 0 1 0 -15 0zM1463.38 -13.27 a7.5 7.5 0 1 0 15 0 a7.5 7.5 0 1 0 -15 0zM1528.34 24.23 a7.5 7.5 0 1 0 15 0 a7.5 7.5 0 1 0 -15 0zM1528.34 99.23 a7.5 7.5 0 1 0 15 0 a7.5 7.5 0 1 0 -15 0zM1463.38 136.73 a7.5 7.5 0 1 0 15 0 a7.5 7.5 0 1 0 -15 0zM1463.38 211.73 a7.5 7.5 0 1 0 15 0 a7.5 7.5 0 1 0 -15 0zM1528.34 249.23 a7.5 7.5 0 1 0 15 0 a7.5 7.5 0 1 0 -15 0zM1528.34 324.23 a7.5 7.5 0 1 0 15 0 a7.5 7.5 0 1 0 -15 0zM1463.38 361.73 a7.5 7.5 0 1 0 15 0 a7.5 7.5 0 1 0 -15 0zM1398.43 324.23 a7.5 7.5 0 1 0 15 0 a7.5 7.5 0 1 0 -15 0zM1398.43 249.23 a7.5 7.5 0 1 0 15 0 a7.5 7.5 0 1 0 -15 0zM1593.29 361.73 a7.5 7.5 0 1 0 15 0 a7.5 7.5 0 1 0 -15 0zM1593.29 436.73 a7.5 7.5 0 1 0 15 0 a7.5 7.5 0 1 0 -15 0zM1528.34 474.23 a7.5 7.5 0 1 0 15 0 a7.5 7.5 0 1 0 -15 0zM1463.38 436.73 a7.5 7.5 0 1 0 15 0 a7.5 7.5 0 1 0 -15 0zM1528.34 549.23 a7.5 7.5 0 1 0 15 0 a7.5 7.5 0 1 0 -15 0zM1593.29 586.73 a7.5 7.5 0 1 0 15 0 a7.5 7.5 0 1 0 -15 0zM1593.29 661.73 a7.5 7.5 0 1 0 15 0 a7.5 7.5 0 1 0 -15 0zM1528.34 699.23 a7.5 7.5 0 1 0 15 0 a7.5 7.5 0 1 0 -15 0zM1463.38 661.73 a7.5 7.5 0 1 0 15 0 a7.5 7.5 0 1 0 -15 0zM1463.38 586.73 a7.5 7.5 0 1 0 15 0 a7.5 7.5 0 1 0 -15 0z" fill="#03305d"></path><path d="M23.4 141.21L66.7 166.21L66.7 216.21L23.4 241.21L-19.9 216.21L-19.9 166.21zM66.7 216.21L110 241.21L110 291.21L66.7 316.21L23.4 291.21L23.4 241.21zM153.31 516.21L196.61 541.21L196.61 591.21L153.31 616.21L110 591.21L110 541.21zM196.61 -8.79L239.91 16.21L239.91 66.21L196.61 91.21L153.31 66.21L153.31 16.21zM239.91 66.21L283.21 91.21L283.21 141.21L239.91 166.21L196.61 141.21L196.61 91.21zM196.61 141.21L239.91 166.21L239.91 216.21L196.61 241.21L153.31 216.21L153.31 166.21zM239.91 216.21L283.21 241.21L283.21 291.21L239.91 316.21L196.61 291.21L196.61 241.21zM283.21 141.21L326.52 166.21L326.52 216.21L283.21 241.21L239.91 216.21L239.91 166.21zM326.52 366.21L369.82 391.21L369.82 441.21L326.52 466.21L283.21 441.21L283.21 391.21zM326.52 516.21L369.82 541.21L369.82 591.21L326.52 616.21L283.21 591.21L283.21 541.21zM369.82 -8.79L413.12 16.21L413.12 66.21L369.82 91.21L326.52 66.21L326.52 16.21zM413.12 216.21L456.43 241.21L456.43 291.21L413.12 316.21L369.82 291.21L369.82 241.21zM413.12 366.21L456.43 391.21L456.43 441.21L413.12 466.21L369.82 441.21L369.82 391.21zM413.12 516.21L456.43 541.21L456.43 591.21L413.12 616.21L369.82 591.21L369.82 541.21zM499.73 66.21L543.03 91.21L543.03 141.21L499.73 166.21L456.43 141.21L456.43 91.21zM456.43 141.21L499.73 166.21L499.73 216.21L456.43 241.21L413.12 216.21L413.12 166.21zM499.73 516.21L543.03 541.21L543.03 591.21L499.73 616.21L456.43 591.21L456.43 541.21zM586.33 66.21L629.63 91.21L629.63 141.21L586.33 166.21L543.03 141.21L543.03 91.21zM629.63 141.21L672.94 166.21L672.94 216.21L629.63 241.21L586.33 216.21L586.33 166.21zM672.94 366.21L716.24 391.21L716.24 441.21L672.94 466.21L629.63 441.21L629.63 391.21zM802.85 -8.79L846.15 16.21L846.15 66.21L802.85 91.21L759.54 66.21L759.54 16.21zM802.85 441.21L846.15 466.21L846.15 516.21L802.85 541.21L759.54 516.21L759.54 466.21zM932.75 366.21L976.06 391.21L976.06 441.21L932.75 466.21L889.45 441.21L889.45 391.21zM889.45 441.21L932.75 466.21L932.75 516.21L889.45 541.21L846.15 516.21L846.15 466.21zM932.75 516.21L976.06 541.21L976.06 591.21L932.75 616.21L889.45 591.21L889.45 541.21zM1019.36 216.21L1062.66 241.21L1062.66 291.21L1019.36 316.21L976.06 291.21L976.06 241.21zM1019.36 366.21L1062.66 391.21L1062.66 441.21L1019.36 466.21L976.06 441.21L976.06 391.21zM1019.36 516.21L1062.66 541.21L1062.66 591.21L1019.36 616.21L976.06 591.21L976.06 541.21zM1062.66 141.21L1105.96 166.21L1105.96 216.21L1062.66 241.21L1019.36 216.21L1019.36 166.21zM1105.96 216.21L1149.27 241.21L1149.27 291.21L1105.96 316.21L1062.66 291.21L1062.66 241.21zM1062.66 291.21L1105.96 316.21L1105.96 366.21L1062.66 391.21L1019.36 366.21L1019.36 316.21zM1105.96 366.21L1149.27 391.21L1149.27 441.21L1105.96 466.21L1062.66 441.21L1062.66 391.21zM1062.66 441.21L1105.96 466.21L1105.96 516.21L1062.66 541.21L1019.36 516.21L1019.36 466.21zM1105.96 516.21L1149.27 541.21L1149.27 591.21L1105.96 616.21L1062.66 591.21L1062.66 541.21zM1192.57 66.21L1235.87 91.21L1235.87 141.21L1192.57 166.21L1149.27 141.21L1149.27 91.21zM1192.57 216.21L1235.87 241.21L1235.87 291.21L1192.57 316.21L1149.27 291.21L1149.27 241.21zM1149.27 441.21L1192.57 466.21L1192.57 516.21L1149.27 541.21L1105.96 516.21L1105.96 466.21zM1192.57 516.21L1235.87 541.21L1235.87 591.21L1192.57 616.21L1149.27 591.21L1149.27 541.21zM1279.17 516.21L1322.48 541.21L1322.48 591.21L1279.17 616.21L1235.87 591.21L1235.87 541.21zM1322.48 -8.79L1365.78 16.21L1365.78 66.21L1322.48 91.21L1279.17 66.21L1279.17 16.21zM1409.08 -8.79L1452.38 16.21L1452.38 66.21L1409.08 91.21L1365.78 66.21L1365.78 16.21zM1452.38 66.21L1495.69 91.21L1495.69 141.21L1452.38 166.21L1409.08 141.21L1409.08 91.21zM1409.08 291.21L1452.38 316.21L1452.38 366.21L1409.08 391.21L1365.78 366.21L1365.78 316.21z" stroke="rgba(6, 80, 156, 0.93)" stroke-width="2"></path></g><defs><mask id="SvgjsMask1129"><rect width="1440" height="560" fill="#ffffff"></rect></mask><linearGradient x1="15.28%" y1="-39.29%" x2="84.72%" y2="139.29%" gradientUnits="userSpaceOnUse" id="SvgjsLinearGradient1130"><stop stop-color="#0e2a47" offset="0"></stop><stop stop-color="rgba(158, 0, 137, 1)" offset="1"></stop></linearGradient></defs></svg>